<?xml version="1.0" encoding="utf-8"?>
<!-- Generator: Adobe Illustrator 22.0.1, SVG Export Plug-In . SVG Version: 6.00 Build 0)  -->
<svg version="1.1" xmlns="http://www.w3.org/2000/svg" xmlns:xlink="http://www.w3.org/1999/xlink" x="0px" y="0px"
	 viewBox="0 0 114.7 39" style="enable-background:new 0 0 114.7 39;" xml:space="preserve">
<style type="text/css">
	.st0{display:none;}
	.st1{fill:#F7F7F7;}
	.st2{fill:#FFFFFF;}
	.st3{fill:none;stroke:#ECECEC;stroke-width:0.75;stroke-miterlimit:10;}
	.st4{fill:#FF8200;}
	.st5{fill:url(#SVGID_3_);}
	.st6{fill:#3C3C3B;}
	.st7{fill:#FFFFFF;stroke:#FFFFFF;stroke-width:0.5;stroke-miterlimit:10;}
	.st8{fill:none;stroke:#C6C6C5;stroke-width:0.5;stroke-miterlimit:10;}
	.st9{fill:#CB7D13;}
	.st10{fill:#FF8200;stroke:#FF8200;stroke-linecap:round;stroke-linejoin:round;stroke-miterlimit:10;}
	.st11{fill:none;stroke:#FF8200;stroke-linecap:round;stroke-linejoin:round;stroke-miterlimit:10;}
	.st12{fill:none;stroke:#C6C6C5;stroke-width:0.5;stroke-linecap:round;stroke-linejoin:round;stroke-miterlimit:10;}
	.st13{fill:none;stroke:#FF8200;stroke-miterlimit:10;}
	.st14{fill:none;stroke:#000000;stroke-width:2;stroke-linecap:round;stroke-miterlimit:10;}
	.st15{fill:none;stroke:#FF8200;stroke-width:2;stroke-linecap:round;stroke-linejoin:round;stroke-miterlimit:10;}
	.st16{fill:url(#SVGID_8_);}
	.st17{fill:none;stroke:#FF8200;stroke-width:2;stroke-miterlimit:10;}
	.st18{opacity:0.8;fill:#FF8200;}
	.st19{fill:none;stroke:#FFFFFF;stroke-width:2;stroke-linecap:round;stroke-miterlimit:10;}
	.st20{fill:#1D1D1B;}
	.st21{fill:none;stroke:#FFFFFF;stroke-miterlimit:10;}
	.st22{fill:none;stroke:#FF8200;stroke-linecap:round;stroke-miterlimit:10;}
</style>
<g id="_x31_200" class="st0">
</g>
<g id="Diseño">
	<g>
		<path class="st2" d="M0,0h8c2.2,0,4.1,0.1,5.4,0.5c2.5,0.8,3.6,2.8,3.6,4.8c0,1.1-0.3,1.8-0.4,2c-0.9,2.1-2.9,2.5-4,2.7
			c1.3,0.2,2.9,0.5,4,1.7c0.7,0.8,1.1,1.9,1.1,3.1c0,1.6-0.8,3.8-3.4,5c-1.5,0.7-3.2,0.8-5.6,0.8H0V0z M4.9,3.8v4.3h3.9
			c1.2,0,3.1-0.1,3.1-2.2c0-2-1.7-2.1-2.7-2.1H4.9z M4.9,11.9v5h3.6c1.7,0,4-0.1,4-2.4c0-2.5-2-2.5-3.1-2.5H4.9z"/>
		<path class="st2" d="M35.5,16.7c-0.5,0.8-1,1.5-1.8,2.3c-1.3,1.2-3.3,2.2-5.7,2.2c-4.5,0-7.7-2.9-7.7-7.9c0-3.7,1.8-8.4,7.8-8.4
			c0.9,0,3.5,0.1,5.5,2.2c2,2.1,2.1,5.1,2.2,6.8H24.8c0,1.9,1,3.8,3.5,3.8c2.4,0,3.3-1.6,3.8-2.7L35.5,16.7z M31,11.1
			c-0.1-0.6-0.2-1.5-0.8-2.2c-0.6-0.6-1.4-0.8-2.2-0.8c-1.1,0-1.8,0.5-2.3,1c-0.6,0.7-0.8,1.4-0.9,2H31z"/>
		<path class="st2" d="M39,15.4c1.2,1.2,2.7,2.1,4.4,2.1c1.1,0,2.7-0.3,2.7-1.5c0-0.5-0.3-0.7-0.6-0.9c-0.7-0.3-1.7-0.4-2.6-0.6
			c-0.7-0.1-1.4-0.3-2-0.5c-0.9-0.3-1.9-0.6-2.5-1.3c-0.7-0.7-1.1-1.7-1.1-2.9c0-2.5,2.2-5.1,6.4-5.1c3.6,0,5.7,1.5,6.8,2.3
			l-2.8,2.6c-1.4-1.1-2.8-1.5-3.8-1.5c-1.7,0-2.2,0.7-2.2,1.1c0,0.9,1,1,2.4,1.3c3.1,0.6,6.6,1.4,6.6,5c0,3.6-3.6,5.3-7.2,5.3
			c-4.2,0-6.4-2-7.4-2.9L39,15.4z"/>
		<path class="st2" d="M54,1h4.5v4.7h2.9v2.7h-3v6.8c0,0.9,0,1.7,1.2,1.7l1.6-0.1v3.5c-1,0.1-1.5,0.2-2.4,0.2
			c-1.5,0-3.2-0.1-4.2-1.5c-0.6-0.9-0.6-2-0.6-3.4V8.4h-2.2V5.7H54V1z"/>
		<g>
			<g>
				<path class="st4" d="M72.2,3.8c1.1-0.1,2.1-0.1,3.3-0.7c1.3-0.7,1.7-1.4,2-2.2h3.6v19.8h-4.7V6.1c-1.1,0.5-1.3,0.6-4.2,0.6V3.8z
					"/>
			</g>
		</g>
		<g>
			<path class="st2" d="M1.2,31.6v0.8c0,0.2,0.1,0.3,0.2,0.5c0.1,0.1,0.3,0.2,0.4,0.2c0.2,0,0.4-0.1,0.5-0.2
				c0.1-0.1,0.1-0.3,0.1-0.4h1.2c0,0.3,0,0.5-0.1,0.7s-0.2,0.4-0.4,0.6c-0.2,0.2-0.4,0.3-0.6,0.4c-0.2,0.1-0.5,0.1-0.8,0.1
				c-0.4,0-0.7-0.1-1-0.2c-0.3-0.2-0.5-0.4-0.6-0.6c-0.1-0.2-0.2-0.4-0.2-0.6c0-0.2,0-0.4,0-0.7v-2c0-0.3,0-0.5,0-0.7
				c0-0.2,0.1-0.4,0.2-0.6c0.1-0.3,0.4-0.5,0.6-0.6C1.1,28,1.5,28,1.9,28c0.3,0,0.5,0,0.8,0.1c0.2,0.1,0.4,0.2,0.6,0.4
				c0.2,0.2,0.3,0.4,0.4,0.6c0.1,0.2,0.1,0.5,0.1,0.8v1.7H1.2z M1.2,30.6h1.2v-0.7c0-0.2-0.1-0.4-0.2-0.5c-0.1-0.1-0.3-0.2-0.4-0.2
				s-0.3,0.1-0.4,0.2c-0.1,0.1-0.2,0.3-0.2,0.5V30.6z"/>
			<path class="st2" d="M8.7,32.3c0,0.3-0.1,0.5-0.2,0.8c-0.1,0.2-0.2,0.5-0.4,0.6c-0.2,0.2-0.4,0.3-0.6,0.4
				c-0.2,0.1-0.5,0.2-0.8,0.2c-0.2,0-0.5,0-0.7-0.1S5.5,34,5.3,33.9c-0.2-0.2-0.4-0.4-0.5-0.6c-0.1-0.3-0.2-0.6-0.2-1v-4.8
				c0-0.3,0-0.6,0.1-0.8C4.9,26.4,5,26.2,5.2,26c0.2-0.2,0.4-0.3,0.6-0.4c0.2-0.1,0.5-0.2,0.8-0.2c0.3,0,0.6,0.1,0.8,0.2
				c0.2,0.1,0.5,0.2,0.6,0.4c0.2,0.2,0.3,0.4,0.4,0.7c0.1,0.3,0.2,0.5,0.2,0.8V28H7.4v-0.4c0-0.2-0.1-0.5-0.2-0.6
				c-0.1-0.2-0.3-0.3-0.6-0.3c-0.3,0-0.5,0.1-0.6,0.3c-0.1,0.2-0.2,0.4-0.2,0.7v4.5c0,0.3,0.1,0.5,0.2,0.6c0.1,0.2,0.3,0.3,0.6,0.3
				c0.1,0,0.2,0,0.3,0c0.1,0,0.2-0.1,0.3-0.1c0.1-0.1,0.1-0.2,0.2-0.3c0-0.1,0.1-0.3,0.1-0.4v-0.4h1.2V32.3z"/>
			<path class="st2" d="M9.5,30.1c0-0.3,0-0.5,0-0.7c0-0.2,0.1-0.4,0.2-0.6c0.1-0.3,0.4-0.5,0.6-0.6c0.3-0.2,0.6-0.2,1-0.2
				c0.4,0,0.7,0.1,1,0.2c0.3,0.2,0.5,0.4,0.6,0.6c0.1,0.2,0.2,0.4,0.2,0.6c0,0.2,0,0.4,0,0.7v2c0,0.3,0,0.5,0,0.7
				c0,0.2-0.1,0.4-0.2,0.6c-0.1,0.3-0.4,0.5-0.6,0.6c-0.3,0.2-0.6,0.2-1,0.2c-0.4,0-0.7-0.1-1-0.2c-0.3-0.2-0.5-0.4-0.6-0.6
				c-0.1-0.2-0.2-0.4-0.2-0.6c0-0.2,0-0.4,0-0.7V30.1z M10.8,32.4c0,0.2,0.1,0.4,0.2,0.5c0.1,0.1,0.3,0.2,0.4,0.2s0.3-0.1,0.4-0.2
				c0.1-0.1,0.2-0.3,0.2-0.5v-2.4c0-0.2-0.1-0.4-0.2-0.5c-0.1-0.1-0.3-0.2-0.4-0.2s-0.3,0.1-0.4,0.2c-0.1,0.1-0.2,0.3-0.2,0.5V32.4z
				"/>
			<path class="st2" d="M14.1,28h1.2v0.6h0c0.1-0.2,0.3-0.4,0.5-0.5c0.2-0.1,0.4-0.2,0.7-0.2c0.3,0,0.5,0.1,0.7,0.2
				c0.2,0.1,0.3,0.3,0.4,0.4c0.2-0.2,0.3-0.3,0.5-0.4C18.4,28,18.7,28,19,28c0.2,0,0.3,0,0.5,0.1c0.2,0.1,0.3,0.1,0.4,0.3
				c0.1,0.1,0.2,0.3,0.3,0.5c0.1,0.2,0.1,0.4,0.1,0.7v4.8h-1.2v-4.3c0-0.2-0.1-0.4-0.2-0.5c-0.1-0.1-0.3-0.2-0.5-0.2
				c-0.2,0-0.4,0.1-0.5,0.2c-0.1,0.1-0.1,0.4-0.1,0.6v4.2h-1.2v-4.3c0-0.2-0.1-0.4-0.2-0.5c-0.1-0.1-0.3-0.2-0.5-0.2
				c-0.2,0-0.4,0.1-0.5,0.2c-0.1,0.1-0.1,0.4-0.1,0.6v4.2h-1.2V28z"/>
			<path class="st2" d="M21.4,28h1.2v0.6h0c0.1-0.2,0.3-0.4,0.5-0.5s0.4-0.2,0.7-0.2c0.3,0,0.5,0.1,0.7,0.2c0.2,0.1,0.3,0.3,0.4,0.4
				c0.2-0.2,0.3-0.3,0.5-0.4c0.2-0.1,0.4-0.2,0.8-0.2c0.2,0,0.3,0,0.5,0.1c0.2,0.1,0.3,0.1,0.4,0.3c0.1,0.1,0.2,0.3,0.3,0.5
				s0.1,0.4,0.1,0.7v4.8h-1.2v-4.3c0-0.2-0.1-0.4-0.2-0.5c-0.1-0.1-0.3-0.2-0.5-0.2c-0.2,0-0.4,0.1-0.5,0.2
				c-0.1,0.1-0.1,0.4-0.1,0.6v4.2h-1.2v-4.3c0-0.2-0.1-0.4-0.2-0.5c-0.1-0.1-0.3-0.2-0.5-0.2c-0.2,0-0.4,0.1-0.5,0.2
				c-0.1,0.1-0.1,0.4-0.1,0.6v4.2h-1.2V28z"/>
			<path class="st2" d="M29.8,31.6v0.8c0,0.2,0.1,0.3,0.2,0.5c0.1,0.1,0.3,0.2,0.4,0.2c0.2,0,0.4-0.1,0.5-0.2
				c0.1-0.1,0.1-0.3,0.1-0.4h1.2c0,0.3,0,0.5-0.1,0.7c-0.1,0.2-0.2,0.4-0.4,0.6c-0.2,0.2-0.4,0.3-0.6,0.4c-0.2,0.1-0.5,0.1-0.8,0.1
				c-0.4,0-0.7-0.1-1-0.2c-0.3-0.2-0.5-0.4-0.6-0.6c-0.1-0.2-0.2-0.4-0.2-0.6c0-0.2,0-0.4,0-0.7v-2c0-0.3,0-0.5,0-0.7
				c0-0.2,0.1-0.4,0.2-0.6c0.1-0.3,0.4-0.5,0.6-0.6c0.3-0.2,0.6-0.2,1-0.2c0.3,0,0.5,0,0.8,0.1c0.2,0.1,0.4,0.2,0.6,0.4
				c0.2,0.2,0.3,0.4,0.4,0.6c0.1,0.2,0.1,0.5,0.1,0.8v1.7H29.8z M29.8,30.6H31v-0.7c0-0.2-0.1-0.4-0.2-0.5c-0.1-0.1-0.3-0.2-0.4-0.2
				c-0.2,0-0.3,0.1-0.4,0.2c-0.1,0.1-0.2,0.3-0.2,0.5V30.6z"/>
			<path class="st2" d="M33.2,28h1.2v0.7c0.3-0.2,0.5-0.4,0.7-0.5c0.2-0.1,0.5-0.2,0.9-0.2v1.3c-0.1,0-0.2-0.1-0.4-0.1
				s-0.3,0-0.4,0.1c-0.2,0-0.3,0.1-0.4,0.2c-0.1,0.1-0.2,0.2-0.3,0.4c-0.1,0.2-0.1,0.4-0.1,0.6v3.7h-1.2V28z"/>
			<path class="st2" d="M37.7,32.4c0,0.2,0.1,0.3,0.2,0.5c0.1,0.1,0.3,0.2,0.4,0.2c0.2,0,0.4-0.1,0.5-0.2c0.1-0.1,0.1-0.3,0.1-0.4
				h1.2c0,0.3,0,0.5-0.1,0.7s-0.2,0.4-0.4,0.6c-0.2,0.2-0.4,0.3-0.6,0.4c-0.2,0.1-0.5,0.1-0.8,0.1c-0.4,0-0.7-0.1-1-0.2
				c-0.3-0.2-0.5-0.4-0.6-0.6c-0.1-0.2-0.2-0.4-0.2-0.6c0-0.2,0-0.4,0-0.7v-2c0-0.3,0-0.5,0-0.7c0-0.2,0.1-0.4,0.2-0.6
				c0.1-0.3,0.4-0.5,0.6-0.6c0.3-0.2,0.6-0.2,1-0.2c0.3,0,0.5,0,0.8,0.1c0.2,0.1,0.4,0.2,0.6,0.4c0.2,0.2,0.3,0.4,0.4,0.6
				c0.1,0.2,0.1,0.5,0.1,0.8H39c0-0.3-0.1-0.4-0.2-0.6c-0.1-0.1-0.3-0.2-0.4-0.2c-0.2,0-0.3,0.1-0.4,0.2c-0.1,0.1-0.2,0.3-0.2,0.5
				V32.4z"/>
			<path class="st2" d="M42.1,31.6v0.8c0,0.2,0.1,0.3,0.2,0.5c0.1,0.1,0.3,0.2,0.4,0.2c0.2,0,0.4-0.1,0.5-0.2
				c0.1-0.1,0.1-0.3,0.1-0.4h1.2c0,0.3,0,0.5-0.1,0.7s-0.2,0.4-0.4,0.6c-0.2,0.2-0.4,0.3-0.6,0.4c-0.2,0.1-0.5,0.1-0.8,0.1
				c-0.4,0-0.7-0.1-1-0.2c-0.3-0.2-0.5-0.4-0.6-0.6c-0.1-0.2-0.2-0.4-0.2-0.6c0-0.2,0-0.4,0-0.7v-2c0-0.3,0-0.5,0-0.7
				c0-0.2,0.1-0.4,0.2-0.6c0.1-0.3,0.4-0.5,0.6-0.6c0.3-0.2,0.6-0.2,1-0.2c0.3,0,0.5,0,0.8,0.1c0.2,0.1,0.4,0.2,0.6,0.4
				c0.2,0.2,0.3,0.4,0.4,0.6c0.1,0.2,0.1,0.5,0.1,0.8v1.7H42.1z M42.1,30.6h1.2v-0.7c0-0.2-0.1-0.4-0.2-0.5
				c-0.1-0.1-0.3-0.2-0.4-0.2c-0.2,0-0.3,0.1-0.4,0.2c-0.1,0.1-0.2,0.3-0.2,0.5V30.6z"/>
			<path class="st2" d="M51.9,28h-1.2v-0.3c0-0.3-0.1-0.5-0.2-0.7c-0.1-0.2-0.4-0.3-0.7-0.3c-0.2,0-0.3,0-0.4,0.1
				c-0.1,0.1-0.2,0.1-0.3,0.3c-0.1,0.1-0.1,0.2-0.1,0.4s0,0.3,0,0.4c0,0.2,0,0.3,0,0.4c0,0.1,0,0.2,0.1,0.3c0,0.1,0.1,0.2,0.2,0.2
				c0.1,0.1,0.2,0.1,0.4,0.2l1,0.4c0.3,0.1,0.5,0.2,0.7,0.4s0.3,0.3,0.4,0.5c0.1,0.2,0.2,0.4,0.2,0.7c0,0.2,0,0.5,0,0.9
				c0,0.4,0,0.7-0.1,1c-0.1,0.3-0.2,0.6-0.4,0.8c-0.2,0.2-0.4,0.4-0.7,0.5c-0.3,0.1-0.6,0.2-1,0.2c-0.3,0-0.6-0.1-0.8-0.2
				c-0.3-0.1-0.5-0.3-0.7-0.4c-0.2-0.2-0.3-0.4-0.4-0.7c-0.1-0.3-0.2-0.5-0.2-0.8v-0.5h1.2v0.4c0,0.2,0.1,0.4,0.2,0.6
				c0.1,0.2,0.4,0.3,0.7,0.3c0.2,0,0.4,0,0.5-0.1c0.1-0.1,0.2-0.1,0.3-0.3c0.1-0.1,0.1-0.2,0.1-0.4c0-0.2,0-0.3,0-0.5
				c0-0.2,0-0.4,0-0.6c0-0.1-0.1-0.3-0.1-0.4c-0.1-0.1-0.1-0.2-0.2-0.2c-0.1-0.1-0.2-0.1-0.4-0.2L49,30.1c-0.5-0.2-0.9-0.5-1.1-0.9
				s-0.3-0.8-0.3-1.4c0-0.3,0-0.6,0.1-0.9c0.1-0.3,0.2-0.5,0.4-0.8c0.2-0.2,0.4-0.4,0.7-0.5c0.3-0.1,0.6-0.2,0.9-0.2
				c0.3,0,0.6,0.1,0.8,0.2c0.3,0.1,0.5,0.3,0.7,0.5c0.2,0.2,0.3,0.4,0.4,0.6c0.1,0.2,0.1,0.5,0.1,0.7V28z"/>
			<path class="st2" d="M52.7,25.5H54v1.2h-1.2V25.5z M52.7,28H54v6.2h-1.2V28z"/>
			<path class="st2" d="M55,26.1h1.2V28H57v1h-0.8v3.4c0,0.1,0,0.3,0,0.3c0,0.1,0.1,0.1,0.1,0.2c0.1,0,0.1,0.1,0.2,0.1
				c0.1,0,0.2,0,0.4,0v1.2h-0.5c-0.3,0-0.5,0-0.7-0.1c-0.2-0.1-0.3-0.2-0.5-0.3c-0.1-0.1-0.2-0.3-0.3-0.5C55,33.1,55,32.9,55,32.8
				V29h-0.6v-1H55V26.1z"/>
			<path class="st2" d="M58.6,31.6v0.8c0,0.2,0.1,0.3,0.2,0.5c0.1,0.1,0.3,0.2,0.4,0.2c0.2,0,0.4-0.1,0.5-0.2
				c0.1-0.1,0.1-0.3,0.1-0.4h1.2c0,0.3,0,0.5-0.1,0.7c-0.1,0.2-0.2,0.4-0.4,0.6c-0.2,0.2-0.4,0.3-0.6,0.4c-0.2,0.1-0.5,0.1-0.8,0.1
				c-0.4,0-0.7-0.1-1-0.2c-0.3-0.2-0.5-0.4-0.6-0.6c-0.1-0.2-0.2-0.4-0.2-0.6c0-0.2,0-0.4,0-0.7v-2c0-0.3,0-0.5,0-0.7
				c0-0.2,0.1-0.4,0.2-0.6c0.1-0.3,0.4-0.5,0.6-0.6c0.3-0.2,0.6-0.2,1-0.2c0.3,0,0.5,0,0.8,0.1c0.2,0.1,0.4,0.2,0.6,0.4
				c0.2,0.2,0.3,0.4,0.4,0.6c0.1,0.2,0.1,0.5,0.1,0.8v1.7H58.6z M58.6,30.6h1.2v-0.7c0-0.2-0.1-0.4-0.2-0.5
				c-0.1-0.1-0.3-0.2-0.4-0.2c-0.2,0-0.3,0.1-0.4,0.2c-0.1,0.1-0.2,0.3-0.2,0.5V30.6z"/>
			<path class="st2" d="M64.4,25.5h1.8c0.4,0,0.7,0.1,1,0.2c0.3,0.1,0.5,0.3,0.7,0.5s0.3,0.4,0.4,0.7c0.1,0.3,0.1,0.5,0.1,0.8V28
				c0,0.2,0,0.4-0.1,0.6c0,0.2-0.1,0.3-0.2,0.4c-0.1,0.1-0.2,0.2-0.3,0.3c-0.1,0.1-0.2,0.2-0.4,0.3c0.3,0.1,0.5,0.3,0.6,0.6
				c0.1,0.3,0.2,0.6,0.2,1.1v0.5c0,0.8-0.2,1.4-0.6,1.8s-1,0.6-1.8,0.6h-1.7V25.5z M65.6,29.1h0.6c0.4,0,0.7-0.1,0.8-0.3
				s0.2-0.5,0.2-0.9c0-0.4-0.1-0.7-0.2-0.9c-0.2-0.2-0.4-0.3-0.9-0.3h-0.5V29.1z M65.6,33h0.5c0.3,0,0.5,0,0.6-0.1
				c0.1-0.1,0.3-0.2,0.3-0.3c0.1-0.1,0.1-0.3,0.1-0.5c0-0.2,0-0.4,0-0.6c0-0.2,0-0.4,0-0.6c0-0.2-0.1-0.3-0.2-0.4
				c-0.1-0.1-0.2-0.2-0.3-0.3c-0.1-0.1-0.3-0.1-0.6-0.1h-0.6V33z"/>
			<path class="st2" d="M73.2,34.2H72v-0.6h0c-0.1,0.2-0.3,0.4-0.5,0.5c-0.2,0.1-0.4,0.2-0.7,0.2c-0.2,0-0.3,0-0.5-0.1
				c-0.2-0.1-0.3-0.1-0.4-0.3c-0.1-0.1-0.2-0.3-0.3-0.5c-0.1-0.2-0.1-0.4-0.1-0.7V28h1.2v4.3c0,0.2,0.1,0.4,0.2,0.5
				c0.1,0.1,0.3,0.2,0.5,0.2c0.2,0,0.4-0.1,0.5-0.2c0.1-0.1,0.1-0.4,0.1-0.6V28h1.2V34.2z"/>
			<path class="st2" d="M74.3,25.5h1.2v1.2h-1.2V25.5z M74.3,28h1.2v6.2h-1.2V28z"/>
			<path class="st2" d="M76.5,25.5h1.2v7c0,0.2,0,0.4,0.1,0.5c0.1,0.1,0.2,0.1,0.5,0.2v1.2c-0.3,0-0.5,0-0.8-0.1
				c-0.2,0-0.4-0.1-0.6-0.3c-0.2-0.1-0.3-0.3-0.4-0.5c-0.1-0.2-0.1-0.5-0.1-0.9V25.5z"/>
			<path class="st2" d="M81.3,33.7c-0.1,0.1-0.2,0.2-0.2,0.3c-0.1,0.1-0.2,0.1-0.2,0.2c-0.1,0.1-0.2,0.1-0.3,0.1c-0.1,0-0.2,0-0.4,0
				c-0.5,0-0.9-0.2-1.1-0.6c-0.1-0.1-0.1-0.3-0.2-0.5c0-0.2,0-0.5,0-0.8V30c0-0.4,0-0.8,0-1c0-0.2,0.1-0.4,0.2-0.5
				c0.1-0.2,0.2-0.3,0.4-0.4c0.2-0.1,0.4-0.2,0.7-0.2c0.2,0,0.5,0.1,0.7,0.2c0.2,0.1,0.4,0.3,0.5,0.5h0v-3.1h1.2v8.7h-1.2V33.7z
				 M80.1,32.2c0,0.3,0,0.5,0.1,0.6c0.1,0.2,0.3,0.2,0.5,0.2c0.2,0,0.3-0.1,0.5-0.2c0.1-0.1,0.2-0.3,0.2-0.6v-2.4
				c0-0.2-0.1-0.4-0.2-0.5c-0.1-0.1-0.3-0.2-0.4-0.2c-0.2,0-0.4,0.1-0.5,0.2c-0.1,0.1-0.1,0.3-0.1,0.5V32.2z"/>
			<path class="st2" d="M84.7,31.6v0.8c0,0.2,0.1,0.3,0.2,0.5c0.1,0.1,0.3,0.2,0.4,0.2c0.2,0,0.4-0.1,0.5-0.2
				c0.1-0.1,0.1-0.3,0.1-0.4h1.2c0,0.3,0,0.5-0.1,0.7c-0.1,0.2-0.2,0.4-0.4,0.6c-0.2,0.2-0.4,0.3-0.6,0.4c-0.2,0.1-0.5,0.1-0.8,0.1
				c-0.4,0-0.7-0.1-1-0.2c-0.3-0.2-0.5-0.4-0.6-0.6c-0.1-0.2-0.2-0.4-0.2-0.6c0-0.2,0-0.4,0-0.7v-2c0-0.3,0-0.5,0-0.7
				c0-0.2,0.1-0.4,0.2-0.6c0.1-0.3,0.4-0.5,0.6-0.6c0.3-0.2,0.6-0.2,1-0.2c0.3,0,0.5,0,0.8,0.1c0.2,0.1,0.4,0.2,0.6,0.4
				c0.2,0.2,0.3,0.4,0.4,0.6c0.1,0.2,0.1,0.5,0.1,0.8v1.7H84.7z M84.7,30.6H86v-0.7c0-0.2-0.1-0.4-0.2-0.5c-0.1-0.1-0.3-0.2-0.4-0.2
				c-0.2,0-0.3,0.1-0.4,0.2c-0.1,0.1-0.2,0.3-0.2,0.5V30.6z"/>
			<path class="st2" d="M88.1,28h1.2v0.7c0.3-0.2,0.5-0.4,0.7-0.5C90.4,28,90.7,28,91,28v1.3c-0.1,0-0.2-0.1-0.4-0.1
				c-0.1,0-0.3,0-0.4,0.1c-0.2,0-0.3,0.1-0.4,0.2c-0.1,0.1-0.2,0.2-0.3,0.4c-0.1,0.2-0.1,0.4-0.1,0.6v3.7h-1.2V28z"/>
			<path class="st2" d="M93.8,29.8c0-0.2-0.1-0.4-0.2-0.5c-0.1-0.1-0.3-0.2-0.4-0.2c-0.2,0-0.3,0.1-0.5,0.2
				c-0.1,0.1-0.2,0.3-0.2,0.4c0,0.1,0,0.2,0.1,0.3c0.1,0.1,0.2,0.2,0.4,0.3l0.7,0.3c0.5,0.2,0.8,0.4,1,0.7c0.2,0.3,0.3,0.6,0.3,1
				c0,0.3,0,0.5-0.1,0.7s-0.2,0.4-0.4,0.6c-0.2,0.2-0.4,0.3-0.6,0.4c-0.2,0.1-0.5,0.1-0.7,0.1c-0.2,0-0.5,0-0.7-0.1
				c-0.2-0.1-0.4-0.2-0.6-0.4c-0.2-0.2-0.3-0.3-0.4-0.6c-0.1-0.2-0.2-0.5-0.2-0.8h1.2c0,0.2,0.1,0.3,0.2,0.5
				c0.1,0.1,0.3,0.2,0.5,0.2c0.2,0,0.3-0.1,0.5-0.2c0.1-0.1,0.2-0.3,0.2-0.5c0-0.2,0-0.3-0.1-0.4c-0.1-0.1-0.3-0.2-0.5-0.3l-0.6-0.2
				c-0.4-0.1-0.7-0.4-0.9-0.7c-0.2-0.3-0.3-0.6-0.3-1.1c0-0.3,0-0.5,0.1-0.7c0.1-0.2,0.2-0.4,0.4-0.6c0.2-0.2,0.4-0.3,0.6-0.4
				c0.2-0.1,0.5-0.1,0.7-0.1s0.5,0,0.7,0.1c0.2,0.1,0.4,0.2,0.6,0.4c0.2,0.2,0.3,0.4,0.4,0.6c0.1,0.2,0.1,0.5,0.1,0.7H93.8z"/>
		</g>
		<g>
			<g>
				<polygon class="st4" points="114.7,27.8 108.6,29.6 114.7,27.8 96,18.1 96,18.1 				"/>
			</g>
			<g>
				<polygon class="st4" points="101.1,39 103.3,34.8 101.1,39 				"/>
			</g>
			<g>
				<polygon class="st4" points="94.6,17.4 96,18.1 96,18.1 94.6,17.4 				"/>
			</g>
			<g>
				<path class="st4" d="M91.7,17.2c-0.3,0.1-0.6,0.2-0.9,0.2c-2.4,0-2.7-3.6-2.7-5.9c0-4.5,0.6-7.3,2.6-7.4c0.8,0,1.4,0.4,1.8,1.2
					c0.7,1.2,0.9,3.6,0.9,5.5c0,0.9-0.1,1.9-0.2,2.8l2.6,1.3l1.3,0.7c0.5-1.6,0.7-3.3,0.7-4.9c0-2.8-0.7-10.5-7.3-10.3
					c-3.3,0.1-4.7,2.4-5.2,3.2c-1.4,2.3-1.6,5-1.6,6.9c0,3.6,0.6,6,1.7,7.7c1.8,2.7,4.2,2.7,5.1,2.7c0.8,0,1.5-0.1,2.1-0.3L92,18.2
					L91.7,17.2z"/>
			</g>
			<g>
				<polygon class="st4" points="96,18.1 94.6,17.4 95.1,19.2 101.1,39 103.3,34.8 105.5,30.5 108.6,29.6 114.7,27.8 				"/>
			</g>
			<g>
				<polygon class="st4" points="103.3,34.8 105.5,30.5 108.6,29.6 105.5,30.5 				"/>
			</g>
			<g>
				<polygon class="st4" points="95.1,19.2 101.1,39 101.1,39 95.1,19.2 				"/>
			</g>
			<g>
				<polygon class="st4" points="94.6,17.4 94.6,17.4 95.1,19.2 95.1,19.2 				"/>
			</g>
		</g>
	</g>
</g>
</svg>
