<?xml version="1.0" encoding="utf-8"?>
<!-- Generator: Adobe Illustrator 22.0.1, SVG Export Plug-In . SVG Version: 6.00 Build 0)  -->
<svg version="1.1" xmlns="http://www.w3.org/2000/svg" xmlns:xlink="http://www.w3.org/1999/xlink" x="0px" y="0px"
	 viewBox="0 0 132.3 45" style="enable-background:new 0 0 132.3 45;" xml:space="preserve">
<style type="text/css">
	.st0{display:none;}
	.st1{fill:#F7F7F7;}
	.st2{fill:#FFFFFF;}
	.st3{fill:none;stroke:#ECECEC;stroke-width:0.75;stroke-miterlimit:10;}
	.st4{fill:#FF8200;}
	.st5{fill:url(#SVGID_3_);}
	.st6{fill:#3C3C3B;}
	.st7{fill:#FFFFFF;stroke:#FFFFFF;stroke-width:0.5;stroke-miterlimit:10;}
	.st8{fill:none;stroke:#C6C6C5;stroke-width:0.5;stroke-miterlimit:10;}
	.st9{fill:#CB7D13;}
	.st10{fill:#FF8200;stroke:#FF8200;stroke-linecap:round;stroke-linejoin:round;stroke-miterlimit:10;}
	.st11{fill:none;stroke:#FF8200;stroke-linecap:round;stroke-linejoin:round;stroke-miterlimit:10;}
	.st12{fill:none;stroke:#C6C6C5;stroke-width:0.5;stroke-linecap:round;stroke-linejoin:round;stroke-miterlimit:10;}
	.st13{fill:none;stroke:#FF8200;stroke-miterlimit:10;}
	.st14{fill:none;stroke:#000000;stroke-width:2;stroke-linecap:round;stroke-miterlimit:10;}
	.st15{fill:none;stroke:#FF8200;stroke-width:2;stroke-linecap:round;stroke-linejoin:round;stroke-miterlimit:10;}
	.st16{fill:url(#SVGID_8_);}
	.st17{fill:none;stroke:#FF8200;stroke-width:2;stroke-miterlimit:10;}
	.st18{opacity:0.8;fill:#FF8200;}
	.st19{fill:none;stroke:#FFFFFF;stroke-width:2;stroke-linecap:round;stroke-miterlimit:10;}
	.st20{fill:#1D1D1B;}
	.st21{fill:none;stroke:#FFFFFF;stroke-miterlimit:10;}
	.st22{fill:none;stroke:#FF8200;stroke-linecap:round;stroke-miterlimit:10;}
</style>
<g id="_x31_200" class="st0">
</g>
<g id="Diseño">
	<g>
		<path d="M0,0h9.2c2.5,0,4.7,0.1,6.2,0.6c2.9,0.9,4.1,3.3,4.1,5.5c0,1.3-0.3,2.1-0.4,2.3c-1.1,2.4-3.4,2.9-4.6,3.2
			c1.4,0.2,3.4,0.5,4.7,2c0.8,0.9,1.3,2.2,1.3,3.6c0,1.8-1,4.4-3.9,5.7c-1.8,0.8-3.7,0.9-6.4,0.9H0V0z M5.6,4.4v4.9h4.5
			c1.3,0,3.5-0.1,3.5-2.6c0-2.3-2-2.4-3.1-2.4H5.6z M5.6,13.7v5.7h4.1c2,0,4.6-0.1,4.6-2.8c0-2.9-2.4-2.9-3.6-2.9H5.6z"/>
		<path d="M40.9,19.3c-0.6,0.9-1.2,1.8-2.1,2.6c-1.5,1.4-3.8,2.5-6.6,2.5c-5.2,0-8.9-3.3-8.9-9.1c0-4.2,2.1-9.7,9-9.7
			c1,0,4.1,0.1,6.3,2.5c2.3,2.5,2.4,5.9,2.5,7.9H28.6c0,2.2,1.2,4.4,4,4.4c2.8,0,3.8-1.8,4.4-3.1L40.9,19.3z M35.8,12.8
			c-0.1-0.7-0.2-1.7-1-2.5c-0.6-0.6-1.6-1-2.5-1c-1.2,0-2.1,0.6-2.6,1.1c-0.7,0.8-0.9,1.6-1,2.3H35.8z"/>
		<path d="M46,17.8c1.4,1.4,3.2,2.4,5.1,2.4c1.2,0,3.1-0.4,3.1-1.7c0-0.6-0.4-0.8-0.7-1c-0.8-0.4-2-0.5-3-0.7
			c-0.8-0.1-1.6-0.3-2.4-0.5c-1.1-0.3-2.2-0.7-2.9-1.5c-0.8-0.8-1.3-2-1.3-3.3c0-2.9,2.5-5.9,7.4-5.9c4.1,0,6.6,1.8,7.8,2.6l-3.2,3
			c-1.6-1.3-3.2-1.7-4.4-1.7c-2,0-2.5,0.8-2.5,1.3c0,1,1.1,1.2,2.8,1.5c3.5,0.6,7.6,1.6,7.6,5.7c0,4.1-4.2,6.2-8.3,6.2
			c-4.9,0-7.4-2.4-8.5-3.4L46,17.8z"/>
		<path d="M64.3,1.1h5.1v5.5h3.4v3.2h-3.4v7.9c0,1.1,0,2,1.3,2l1.8-0.1v4c-1.1,0.2-1.8,0.3-2.7,0.3c-1.8,0-3.7-0.1-4.8-1.7
			c-0.7-1-0.7-2.3-0.7-4V9.7h-2.6V6.6h2.6V1.1z"/>
		<g>
			<path class="st4" d="M83.3,4.3c1.3-0.1,2.5-0.2,3.8-0.8c1.5-0.8,1.9-1.6,2.4-2.6h4.1v22.8h-5.4V7.1c-1.2,0.5-1.5,0.7-4.8,0.7V4.3
				z"/>
		</g>
		<g>
			<path d="M1.4,36.5v1c0,0.2,0.1,0.4,0.2,0.5c0.1,0.1,0.3,0.2,0.5,0.2c0.3,0,0.5-0.1,0.5-0.2c0.1-0.2,0.1-0.3,0.2-0.5h1.4
				c0,0.3,0,0.6-0.1,0.8C4,38.5,3.9,38.8,3.7,39c-0.2,0.2-0.4,0.4-0.7,0.5s-0.6,0.2-0.9,0.2c-0.4,0-0.8-0.1-1.1-0.3
				c-0.3-0.2-0.6-0.4-0.7-0.7c-0.1-0.2-0.2-0.4-0.2-0.6C0,37.7,0,37.4,0,37.1v-2.4c0-0.3,0-0.6,0.1-0.8c0-0.2,0.1-0.5,0.2-0.6
				C0.4,33,0.7,32.7,1,32.5c0.3-0.2,0.7-0.3,1.1-0.3c0.3,0,0.6,0.1,0.9,0.2c0.3,0.1,0.5,0.3,0.7,0.5c0.2,0.2,0.3,0.4,0.4,0.7
				c0.1,0.3,0.1,0.6,0.1,0.9v2H1.4z M1.4,35.3h1.4v-0.8c0-0.3-0.1-0.5-0.2-0.6c-0.1-0.1-0.3-0.2-0.5-0.2s-0.4,0.1-0.5,0.2
				c-0.1,0.1-0.2,0.3-0.2,0.6V35.3z"/>
			<path d="M10,37.3c0,0.3-0.1,0.6-0.2,0.9c-0.1,0.3-0.3,0.5-0.5,0.7c-0.2,0.2-0.4,0.4-0.7,0.5c-0.3,0.1-0.6,0.2-0.9,0.2
				c-0.3,0-0.6,0-0.8-0.1c-0.3-0.1-0.5-0.2-0.8-0.4c-0.2-0.2-0.4-0.4-0.6-0.7c-0.1-0.3-0.2-0.7-0.2-1.1v-5.5c0-0.3,0.1-0.6,0.2-0.9
				C5.6,30.5,5.8,30.2,6,30c0.2-0.2,0.5-0.4,0.7-0.5c0.3-0.1,0.6-0.2,1-0.2c0.3,0,0.6,0.1,0.9,0.2c0.3,0.1,0.5,0.3,0.7,0.5
				c0.2,0.2,0.4,0.5,0.5,0.8c0.1,0.3,0.2,0.6,0.2,1v0.6H8.6v-0.5c0-0.3-0.1-0.5-0.2-0.7c-0.2-0.2-0.4-0.3-0.6-0.3
				c-0.4,0-0.6,0.1-0.7,0.3c-0.1,0.2-0.2,0.5-0.2,0.8v5.1c0,0.3,0.1,0.5,0.2,0.7c0.1,0.2,0.4,0.3,0.7,0.3c0.1,0,0.2,0,0.3,0
				c0.1,0,0.2-0.1,0.3-0.2c0.1-0.1,0.2-0.2,0.2-0.3s0.1-0.3,0.1-0.5v-0.5H10V37.3z"/>
			<path d="M11,34.7c0-0.3,0-0.6,0.1-0.8c0-0.2,0.1-0.5,0.2-0.6c0.2-0.3,0.4-0.6,0.7-0.7c0.3-0.2,0.7-0.3,1.1-0.3
				c0.4,0,0.8,0.1,1.1,0.3c0.3,0.2,0.6,0.4,0.7,0.7c0.1,0.2,0.2,0.4,0.2,0.6c0,0.2,0.1,0.5,0.1,0.8v2.4c0,0.3,0,0.6-0.1,0.8
				c0,0.2-0.1,0.5-0.2,0.6c-0.2,0.3-0.4,0.6-0.7,0.7c-0.3,0.2-0.7,0.3-1.1,0.3c-0.4,0-0.8-0.1-1.1-0.3c-0.3-0.2-0.6-0.4-0.7-0.7
				c-0.1-0.2-0.2-0.4-0.2-0.6c0-0.2-0.1-0.5-0.1-0.8V34.7z M12.4,37.3c0,0.3,0.1,0.5,0.2,0.6c0.1,0.1,0.3,0.2,0.5,0.2
				s0.4-0.1,0.5-0.2c0.1-0.1,0.2-0.3,0.2-0.6v-2.8c0-0.3-0.1-0.5-0.2-0.6c-0.1-0.1-0.3-0.2-0.5-0.2s-0.4,0.1-0.5,0.2
				c-0.1,0.1-0.2,0.3-0.2,0.6V37.3z"/>
			<path d="M16.3,32.3h1.4V33h0c0.2-0.2,0.3-0.4,0.5-0.6c0.2-0.1,0.5-0.2,0.8-0.2c0.3,0,0.6,0.1,0.8,0.2c0.2,0.2,0.4,0.3,0.5,0.5
				c0.2-0.2,0.4-0.4,0.6-0.5c0.2-0.1,0.5-0.2,0.9-0.2c0.2,0,0.4,0,0.6,0.1c0.2,0.1,0.4,0.2,0.5,0.3c0.2,0.1,0.3,0.3,0.4,0.5
				c0.1,0.2,0.1,0.5,0.1,0.8v5.5h-1.4v-5c0-0.3-0.1-0.5-0.2-0.6c-0.1-0.2-0.3-0.2-0.5-0.2c-0.3,0-0.5,0.1-0.6,0.3
				c-0.1,0.2-0.2,0.4-0.2,0.7v4.8h-1.4v-5c0-0.3-0.1-0.5-0.2-0.6c-0.1-0.2-0.3-0.2-0.5-0.2c-0.3,0-0.5,0.1-0.6,0.3
				c-0.1,0.2-0.2,0.4-0.2,0.7v4.8h-1.4V32.3z"/>
			<path d="M24.7,32.3h1.4V33h0c0.2-0.2,0.3-0.4,0.5-0.6c0.2-0.1,0.5-0.2,0.8-0.2c0.3,0,0.6,0.1,0.8,0.2c0.2,0.2,0.4,0.3,0.5,0.5
				c0.2-0.2,0.4-0.4,0.6-0.5c0.2-0.1,0.5-0.2,0.9-0.2c0.2,0,0.4,0,0.6,0.1c0.2,0.1,0.4,0.2,0.5,0.3c0.2,0.1,0.3,0.3,0.4,0.5
				c0.1,0.2,0.1,0.5,0.1,0.8v5.5h-1.4v-5c0-0.3-0.1-0.5-0.2-0.6c-0.1-0.2-0.3-0.2-0.5-0.2c-0.3,0-0.5,0.1-0.6,0.3
				C29,34.1,29,34.4,29,34.7v4.8h-1.4v-5c0-0.3-0.1-0.5-0.2-0.6c-0.1-0.2-0.3-0.2-0.5-0.2c-0.3,0-0.5,0.1-0.6,0.3
				c-0.1,0.2-0.2,0.4-0.2,0.7v4.8h-1.4V32.3z"/>
			<path d="M34.4,36.5v1c0,0.2,0.1,0.4,0.2,0.5c0.1,0.1,0.3,0.2,0.5,0.2c0.3,0,0.5-0.1,0.5-0.2c0.1-0.2,0.1-0.3,0.2-0.5h1.4
				c0,0.3,0,0.6-0.1,0.8c-0.1,0.3-0.2,0.5-0.4,0.7c-0.2,0.2-0.4,0.4-0.7,0.5s-0.6,0.2-0.9,0.2c-0.4,0-0.8-0.1-1.1-0.3
				c-0.3-0.2-0.6-0.4-0.7-0.7c-0.1-0.2-0.2-0.4-0.2-0.6c0-0.2-0.1-0.5-0.1-0.8v-2.4c0-0.3,0-0.6,0.1-0.8c0-0.2,0.1-0.5,0.2-0.6
				c0.2-0.3,0.4-0.6,0.7-0.7c0.3-0.2,0.7-0.3,1.1-0.3c0.3,0,0.6,0.1,0.9,0.2c0.3,0.1,0.5,0.3,0.7,0.5c0.2,0.2,0.3,0.4,0.4,0.7
				c0.1,0.3,0.1,0.6,0.1,0.9v2H34.4z M34.4,35.3h1.4v-0.8c0-0.3-0.1-0.5-0.2-0.6c-0.1-0.1-0.3-0.2-0.5-0.2s-0.4,0.1-0.5,0.2
				c-0.1,0.1-0.2,0.3-0.2,0.6V35.3z"/>
			<path d="M38.3,32.3h1.4v0.8c0.3-0.3,0.6-0.5,0.9-0.6c0.3-0.2,0.6-0.2,1-0.2v1.5c-0.1-0.1-0.3-0.1-0.4-0.1s-0.3,0-0.5,0.1
				c-0.2,0.1-0.3,0.1-0.5,0.3c-0.1,0.1-0.3,0.3-0.4,0.5c-0.1,0.2-0.1,0.4-0.1,0.7v4.3h-1.4V32.3z"/>
			<path d="M43.6,37.4c0,0.2,0.1,0.4,0.2,0.5c0.1,0.1,0.3,0.2,0.5,0.2c0.3,0,0.5-0.1,0.5-0.2c0.1-0.2,0.1-0.3,0.2-0.5h1.4
				c0,0.3,0,0.6-0.1,0.8S46,38.8,45.8,39c-0.2,0.2-0.4,0.4-0.7,0.5s-0.6,0.2-0.9,0.2c-0.4,0-0.8-0.1-1.1-0.3
				c-0.3-0.2-0.6-0.4-0.7-0.7c-0.1-0.2-0.2-0.4-0.2-0.6c0-0.2-0.1-0.5-0.1-0.8v-2.4c0-0.3,0-0.6,0.1-0.8c0-0.2,0.1-0.5,0.2-0.6
				c0.2-0.3,0.4-0.6,0.7-0.7c0.3-0.2,0.7-0.3,1.1-0.3c0.3,0,0.6,0.1,0.9,0.2c0.3,0.1,0.5,0.3,0.7,0.5c0.2,0.2,0.3,0.4,0.4,0.7
				c0.1,0.3,0.1,0.6,0.1,0.9H45c0-0.3-0.1-0.5-0.2-0.6c-0.1-0.1-0.3-0.2-0.5-0.2c-0.2,0-0.4,0.1-0.5,0.2c-0.1,0.1-0.2,0.3-0.2,0.6
				V37.4z"/>
			<path d="M48.6,36.5v1c0,0.2,0.1,0.4,0.2,0.5c0.1,0.1,0.3,0.2,0.5,0.2c0.3,0,0.5-0.1,0.5-0.2c0.1-0.2,0.1-0.3,0.2-0.5h1.4
				c0,0.3,0,0.6-0.1,0.8S51,38.8,50.8,39c-0.2,0.2-0.4,0.4-0.7,0.5s-0.6,0.2-0.9,0.2c-0.4,0-0.8-0.1-1.1-0.3
				c-0.3-0.2-0.6-0.4-0.7-0.7c-0.1-0.2-0.2-0.4-0.2-0.6c0-0.2-0.1-0.5-0.1-0.8v-2.4c0-0.3,0-0.6,0.1-0.8c0-0.2,0.1-0.5,0.2-0.6
				c0.2-0.3,0.4-0.6,0.7-0.7c0.3-0.2,0.7-0.3,1.1-0.3c0.3,0,0.6,0.1,0.9,0.2c0.3,0.1,0.5,0.3,0.7,0.5c0.2,0.2,0.3,0.4,0.4,0.7
				c0.1,0.3,0.1,0.6,0.1,0.9v2H48.6z M48.6,35.3H50v-0.8c0-0.3-0.1-0.5-0.2-0.6c-0.1-0.1-0.3-0.2-0.5-0.2s-0.4,0.1-0.5,0.2
				c-0.1,0.1-0.2,0.3-0.2,0.6V35.3z"/>
			<path d="M59.8,32.3h-1.4V32c0-0.3-0.1-0.6-0.2-0.9c-0.2-0.2-0.4-0.4-0.8-0.4c-0.2,0-0.4,0-0.5,0.1c-0.1,0.1-0.2,0.2-0.3,0.3
				c-0.1,0.1-0.1,0.3-0.1,0.4s0,0.3,0,0.5c0,0.2,0,0.4,0,0.5s0,0.3,0.1,0.4c0.1,0.1,0.1,0.2,0.2,0.3c0.1,0.1,0.3,0.2,0.4,0.2
				l1.1,0.4c0.3,0.1,0.6,0.3,0.8,0.4s0.4,0.4,0.5,0.6c0.1,0.2,0.2,0.5,0.2,0.8c0,0.3,0.1,0.6,0.1,1c0,0.4,0,0.8-0.1,1.2
				c-0.1,0.4-0.2,0.7-0.4,0.9c-0.2,0.3-0.4,0.5-0.8,0.6c-0.3,0.2-0.7,0.2-1.2,0.2c-0.3,0-0.7-0.1-1-0.2c-0.3-0.1-0.6-0.3-0.8-0.5
				c-0.2-0.2-0.4-0.5-0.5-0.8c-0.1-0.3-0.2-0.6-0.2-0.9v-0.5h1.4v0.5c0,0.3,0.1,0.5,0.2,0.7c0.2,0.2,0.4,0.3,0.8,0.3
				c0.2,0,0.4,0,0.6-0.1c0.1-0.1,0.2-0.2,0.3-0.3c0.1-0.1,0.1-0.3,0.1-0.5c0-0.2,0-0.4,0-0.6c0-0.3,0-0.5,0-0.6s-0.1-0.3-0.1-0.4
				c-0.1-0.1-0.1-0.2-0.3-0.3c-0.1-0.1-0.3-0.1-0.4-0.2l-1-0.4c-0.6-0.3-1-0.6-1.2-1c-0.2-0.4-0.3-0.9-0.3-1.6
				c0-0.4,0.1-0.7,0.2-1.1c0.1-0.3,0.3-0.6,0.5-0.9c0.2-0.2,0.5-0.4,0.8-0.6c0.3-0.1,0.7-0.2,1.1-0.2c0.4,0,0.7,0.1,1,0.2
				c0.3,0.1,0.6,0.3,0.8,0.5c0.2,0.2,0.4,0.5,0.5,0.7c0.1,0.3,0.2,0.5,0.2,0.8V32.3z"/>
			<path d="M60.8,29.4h1.4v1.4h-1.4V29.4z M60.8,32.3h1.4v7.2h-1.4V32.3z"/>
			<path d="M63.5,30.2h1.4v2.2h0.9v1.1h-0.9v4c0,0.2,0,0.3,0,0.4c0,0.1,0.1,0.2,0.2,0.2c0.1,0,0.2,0.1,0.3,0.1c0.1,0,0.2,0,0.4,0
				v1.4h-0.6c-0.3,0-0.6-0.1-0.8-0.2c-0.2-0.1-0.4-0.2-0.5-0.4c-0.1-0.2-0.2-0.3-0.3-0.5c-0.1-0.2-0.1-0.4-0.1-0.6v-4.3h-0.7v-1.1
				h0.7V30.2z"/>
			<path d="M67.7,36.5v1c0,0.2,0.1,0.4,0.2,0.5c0.1,0.1,0.3,0.2,0.5,0.2c0.3,0,0.5-0.1,0.5-0.2c0.1-0.2,0.1-0.3,0.2-0.5h1.4
				c0,0.3,0,0.6-0.1,0.8c-0.1,0.3-0.2,0.5-0.4,0.7c-0.2,0.2-0.4,0.4-0.7,0.5s-0.6,0.2-0.9,0.2c-0.4,0-0.8-0.1-1.1-0.3
				c-0.3-0.2-0.6-0.4-0.7-0.7c-0.1-0.2-0.2-0.4-0.2-0.6c0-0.2-0.1-0.5-0.1-0.8v-2.4c0-0.3,0-0.6,0.1-0.8c0-0.2,0.1-0.5,0.2-0.6
				c0.2-0.3,0.4-0.6,0.7-0.7c0.3-0.2,0.7-0.3,1.1-0.3c0.3,0,0.6,0.1,0.9,0.2c0.3,0.1,0.5,0.3,0.7,0.5c0.2,0.2,0.3,0.4,0.4,0.7
				c0.1,0.3,0.1,0.6,0.1,0.9v2H67.7z M67.7,35.3h1.4v-0.8c0-0.3-0.1-0.5-0.2-0.6c-0.1-0.1-0.3-0.2-0.5-0.2c-0.2,0-0.4,0.1-0.5,0.2
				c-0.1,0.1-0.2,0.3-0.2,0.6V35.3z"/>
			<path d="M74.3,29.4h2.1c0.5,0,0.9,0.1,1.2,0.2c0.3,0.1,0.6,0.3,0.8,0.6c0.2,0.2,0.4,0.5,0.4,0.8c0.1,0.3,0.1,0.6,0.1,1v0.4
				c0,0.3,0,0.5-0.1,0.7c0,0.2-0.1,0.4-0.2,0.5c-0.1,0.1-0.2,0.3-0.3,0.4c-0.1,0.1-0.3,0.2-0.4,0.3c0.3,0.2,0.6,0.4,0.7,0.7
				c0.2,0.3,0.2,0.7,0.2,1.3v0.6c0,0.9-0.2,1.6-0.6,2c-0.4,0.5-1.1,0.7-2.1,0.7h-2V29.4z M75.7,33.6h0.6c0.5,0,0.8-0.1,1-0.4
				c0.2-0.2,0.2-0.6,0.2-1.1c0-0.5-0.1-0.8-0.3-1c-0.2-0.2-0.5-0.3-1-0.3h-0.6V33.6z M75.7,38.1h0.6c0.3,0,0.5,0,0.7-0.1
				c0.2-0.1,0.3-0.2,0.4-0.4c0.1-0.2,0.1-0.3,0.2-0.5c0-0.2,0-0.4,0-0.7c0-0.3,0-0.5,0-0.7c0-0.2-0.1-0.3-0.2-0.5
				c-0.1-0.1-0.2-0.2-0.4-0.3c-0.2-0.1-0.4-0.1-0.6-0.1h-0.6V38.1z"/>
			<path d="M84.5,39.5h-1.4v-0.7h0c-0.2,0.2-0.3,0.4-0.5,0.6c-0.2,0.1-0.5,0.2-0.8,0.2c-0.2,0-0.4,0-0.5-0.1
				c-0.2-0.1-0.3-0.2-0.5-0.3c-0.1-0.1-0.3-0.3-0.3-0.5c-0.1-0.2-0.1-0.5-0.1-0.8v-5.5h1.4v5c0,0.3,0.1,0.5,0.2,0.6
				c0.1,0.2,0.3,0.2,0.5,0.2c0.3,0,0.5-0.1,0.6-0.3s0.2-0.4,0.2-0.7v-4.8h1.4V39.5z"/>
			<path d="M85.7,29.4h1.4v1.4h-1.4V29.4z M85.7,32.3h1.4v7.2h-1.4V32.3z"/>
			<path d="M88.2,29.4h1.4v8c0,0.3,0,0.5,0.1,0.6c0.1,0.1,0.3,0.2,0.6,0.2v1.4c-0.3,0-0.6,0-0.9-0.1c-0.3-0.1-0.5-0.2-0.7-0.3
				c-0.2-0.1-0.3-0.4-0.4-0.6c-0.1-0.3-0.1-0.6-0.1-1V29.4z"/>
			<path d="M93.8,38.9c-0.1,0.1-0.2,0.2-0.3,0.3c-0.1,0.1-0.2,0.2-0.3,0.2c-0.1,0.1-0.2,0.1-0.4,0.2s-0.3,0.1-0.5,0.1
				c-0.6,0-1-0.2-1.3-0.7c-0.1-0.2-0.1-0.4-0.2-0.6c0-0.2-0.1-0.6-0.1-0.9v-2.7c0-0.5,0-0.9,0-1.1c0-0.2,0.1-0.4,0.2-0.6
				c0.1-0.2,0.3-0.3,0.5-0.5c0.2-0.1,0.5-0.2,0.8-0.2c0.3,0,0.5,0.1,0.8,0.2c0.2,0.1,0.4,0.3,0.6,0.5h0v-3.5h1.4v10.1h-1.4V38.9z
				 M92.4,37.2c0,0.3,0.1,0.5,0.2,0.7c0.1,0.2,0.3,0.3,0.5,0.3c0.2,0,0.4-0.1,0.5-0.2c0.1-0.2,0.2-0.4,0.2-0.6v-2.8
				c0-0.2-0.1-0.4-0.2-0.6c-0.1-0.1-0.3-0.2-0.5-0.2c-0.3,0-0.5,0.1-0.6,0.3c-0.1,0.2-0.1,0.4-0.1,0.6V37.2z"/>
			<path d="M97.8,36.5v1c0,0.2,0.1,0.4,0.2,0.5c0.1,0.1,0.3,0.2,0.5,0.2c0.3,0,0.5-0.1,0.5-0.2c0.1-0.2,0.1-0.3,0.2-0.5h1.4
				c0,0.3,0,0.6-0.1,0.8c-0.1,0.3-0.2,0.5-0.4,0.7c-0.2,0.2-0.4,0.4-0.7,0.5s-0.6,0.2-0.9,0.2c-0.4,0-0.8-0.1-1.1-0.3
				c-0.3-0.2-0.6-0.4-0.7-0.7c-0.1-0.2-0.2-0.4-0.2-0.6c0-0.2-0.1-0.5-0.1-0.8v-2.4c0-0.3,0-0.6,0.1-0.8c0-0.2,0.1-0.5,0.2-0.6
				c0.2-0.3,0.4-0.6,0.7-0.7c0.3-0.2,0.7-0.3,1.1-0.3c0.3,0,0.6,0.1,0.9,0.2c0.3,0.1,0.5,0.3,0.7,0.5c0.2,0.2,0.3,0.4,0.4,0.7
				c0.1,0.3,0.1,0.6,0.1,0.9v2H97.8z M97.8,35.3h1.4v-0.8c0-0.3-0.1-0.5-0.2-0.6c-0.1-0.1-0.3-0.2-0.5-0.2c-0.2,0-0.4,0.1-0.5,0.2
				c-0.1,0.1-0.2,0.3-0.2,0.6V35.3z"/>
			<path d="M101.7,32.3h1.4v0.8c0.3-0.3,0.6-0.5,0.9-0.6c0.3-0.2,0.6-0.2,1-0.2v1.5c-0.1-0.1-0.3-0.1-0.4-0.1c-0.2,0-0.3,0-0.5,0.1
				c-0.2,0.1-0.3,0.1-0.5,0.3c-0.1,0.1-0.3,0.3-0.4,0.5c-0.1,0.2-0.1,0.4-0.1,0.7v4.3h-1.4V32.3z"/>
			<path d="M108.2,34.3c0-0.2-0.1-0.4-0.2-0.6c-0.1-0.1-0.3-0.2-0.5-0.2c-0.2,0-0.4,0.1-0.5,0.2c-0.1,0.1-0.2,0.3-0.2,0.5
				c0,0.1,0,0.3,0.1,0.4c0.1,0.1,0.2,0.2,0.5,0.3l0.8,0.3c0.5,0.2,0.9,0.5,1.1,0.8c0.2,0.4,0.3,0.7,0.3,1.2c0,0.3-0.1,0.6-0.2,0.8
				c-0.1,0.3-0.3,0.5-0.4,0.7c-0.2,0.2-0.4,0.4-0.7,0.5s-0.6,0.2-0.9,0.2c-0.3,0-0.6,0-0.8-0.1c-0.3-0.1-0.5-0.2-0.7-0.4
				c-0.2-0.2-0.4-0.4-0.5-0.7c-0.1-0.3-0.2-0.6-0.2-0.9h1.4c0,0.2,0.1,0.4,0.2,0.6c0.1,0.2,0.3,0.3,0.6,0.3c0.2,0,0.4-0.1,0.6-0.2
				c0.2-0.1,0.2-0.3,0.2-0.6c0-0.2-0.1-0.4-0.2-0.5c-0.1-0.1-0.3-0.3-0.6-0.4l-0.7-0.3c-0.5-0.2-0.8-0.4-1.1-0.8
				c-0.3-0.3-0.4-0.7-0.4-1.2c0-0.3,0.1-0.6,0.2-0.8c0.1-0.3,0.3-0.5,0.5-0.7c0.2-0.2,0.4-0.3,0.7-0.4c0.3-0.1,0.5-0.2,0.8-0.2
				s0.6,0.1,0.8,0.2s0.5,0.3,0.6,0.4c0.2,0.2,0.3,0.4,0.4,0.7c0.1,0.3,0.2,0.5,0.2,0.8H108.2z"/>
		</g>
		<g>
			<g>
				<polygon class="st4" points="132.3,32 125.3,34.1 132.3,32 110.8,20.9 110.8,20.9 				"/>
			</g>
			<g>
				<polygon class="st4" points="116.7,45 119.2,40.1 116.7,45 				"/>
			</g>
			<g>
				<polygon class="st4" points="109.1,20.1 110.8,20.9 110.8,20.9 109.1,20.1 				"/>
			</g>
			<g>
				<path class="st4" d="M105.8,19.8c-0.3,0.2-0.6,0.3-1,0.3c-2.7,0-3.1-4.2-3.1-6.8c0-5.1,0.7-8.4,3-8.5c0.9,0,1.6,0.4,2.1,1.3
					c0.8,1.4,1.1,4.1,1.1,6.4c0,1-0.1,2.2-0.2,3.2l3,1.6l1.5,0.8c0.6-1.8,0.8-3.8,0.8-5.6c0-3.3-0.8-12.1-8.4-11.9
					c-3.8,0.1-5.5,2.8-6,3.7c-1.6,2.7-1.8,5.8-1.8,7.9c0,4.2,0.7,7,2,8.9c2.1,3.1,4.9,3.2,5.9,3.2c0.9,0,1.7-0.1,2.5-0.4l-0.9-2.9
					L105.8,19.8z"/>
			</g>
			<g>
				<polygon class="st4" points="110.8,20.9 109.1,20.1 109.8,22.1 116.7,45 119.2,40.1 121.8,35.2 125.3,34.1 132.3,32 				"/>
			</g>
			<g>
				<polygon class="st4" points="119.2,40.1 121.8,35.2 125.3,34.1 121.8,35.2 				"/>
			</g>
			<g>
				<polygon class="st4" points="109.8,22.1 116.7,45 116.7,45 109.8,22.1 				"/>
			</g>
			<g>
				<polygon class="st4" points="109.1,20.1 109.1,20.1 109.8,22.1 109.8,22.1 				"/>
			</g>
		</g>
	</g>
</g>
</svg>
